<svg xmlns="http://www.w3.org/2000/svg" xmlns:xlink="http://www.w3.org/1999/xlink" width="500" zoomAndPan="magnify" viewBox="0 0 375 374.999991" height="500" preserveAspectRatio="xMidYMid meet" version="1.2"><defs/><g id="f6c6bb463b"><g style="fill:#ffffff;fill-opacity:1;"><g transform="translate(81.607528, 224.019703)"><path style="stroke:none" d="M 188.015625 45.09375 C 188.765625 45.71875 189.171875 46.523438 189.234375 47.515625 C 189.296875 48.515625 189.015625 49.445312 188.390625 50.3125 C 181.804688 58.382812 174.847656 62.421875 167.515625 62.421875 C 167.273438 62.421875 167.03125 62.421875 166.78125 62.421875 C 161.4375 62.296875 156.21875 60.179688 151.125 56.078125 C 146.03125 51.984375 140.90625 46.644531 135.75 40.0625 C 130.59375 33.476562 125.28125 26.273438 119.8125 18.453125 C 114.101562 10.492188 108.078125 2.382812 101.734375 -5.875 C 95.398438 -14.132812 88.695312 -21.367188 81.625 -27.578125 C 74.039062 -25.710938 66.582031 -24.84375 59.25 -24.96875 C 56.394531 -13.289062 53.566406 -1.582031 50.765625 10.15625 C 47.972656 21.894531 45.363281 33.070312 42.9375 43.6875 C 40.519531 54.3125 38.441406 63.878906 36.703125 72.390625 C 34.960938 80.898438 33.722656 87.828125 32.984375 93.171875 C 33.359375 92.304688 33.789062 91.3125 34.28125 90.1875 C 34.65625 89.320312 35.304688 88.703125 36.234375 88.328125 C 37.171875 87.953125 38.078125 87.953125 38.953125 88.328125 C 39.941406 88.828125 40.59375 89.539062 40.90625 90.46875 C 41.21875 91.40625 41.1875 92.304688 40.8125 93.171875 C 38.445312 98.390625 36.457031 102.269531 34.84375 104.8125 C 33.226562 107.363281 31.550781 108.640625 29.8125 108.640625 C 29.3125 108.640625 28.816406 108.515625 28.328125 108.265625 C 27.328125 107.890625 26.546875 107.171875 25.984375 106.109375 C 25.429688 105.054688 25.1875 103.070312 25.25 100.15625 C 25.3125 97.238281 25.804688 92.890625 26.734375 87.109375 C 27.671875 81.335938 29.160156 73.601562 31.203125 63.90625 C 33.253906 54.21875 35.957031 42.078125 39.3125 27.484375 C 42.664062 12.890625 46.890625 -4.78125 51.984375 -25.53125 C 45.148438 -26.269531 39.960938 -27.972656 36.421875 -30.640625 C 32.890625 -33.316406 30.6875 -36.085938 29.8125 -38.953125 C 28.320312 -43.296875 29.441406 -46.894531 33.171875 -49.75 C 35.773438 -51.863281 39.21875 -52.921875 43.5 -52.921875 C 47.789062 -52.921875 52.609375 -51.988281 57.953125 -50.125 C 58.703125 -53.226562 59.476562 -56.363281 60.28125 -59.53125 C 61.09375 -62.695312 61.867188 -65.957031 62.609375 -69.3125 C 65.460938 -80.5 68.160156 -91.304688 70.703125 -101.734375 C 73.253906 -112.171875 75.585938 -121.832031 77.703125 -130.71875 C 79.816406 -139.601562 81.554688 -147.210938 82.921875 -153.546875 C 83.171875 -154.535156 83.695312 -155.3125 84.5 -155.875 C 85.3125 -156.4375 86.210938 -156.59375 87.203125 -156.34375 C 88.203125 -156.09375 88.945312 -155.5625 89.4375 -154.75 C 89.9375 -153.945312 90.125 -153.050781 90 -152.0625 C 88.507812 -145.71875 86.707031 -138.101562 84.59375 -129.21875 C 82.488281 -120.34375 80.160156 -110.65625 77.609375 -100.15625 C 75.066406 -89.65625 72.425781 -78.816406 69.6875 -67.640625 C 68.820312 -64.410156 67.984375 -61.085938 67.171875 -57.671875 C 66.367188 -54.253906 65.53125 -50.742188 64.65625 -47.140625 C 67.757812 -45.648438 70.929688 -43.972656 74.171875 -42.109375 C 77.148438 -40.242188 80.191406 -38.070312 83.296875 -35.59375 C 91.617188 -37.945312 100.160156 -41.640625 108.921875 -46.671875 C 117.679688 -51.703125 126.253906 -58.316406 134.640625 -66.515625 C 143.023438 -74.722656 150.753906 -84.851562 157.828125 -96.90625 C 163.171875 -105.84375 167.144531 -114.597656 169.75 -123.171875 C 172.363281 -131.742188 173.546875 -139.660156 173.296875 -146.921875 C 173.046875 -154.191406 171.367188 -160.375 168.265625 -165.46875 C 161.179688 -176.65625 147.703125 -181.5625 127.828125 -180.1875 C 117.765625 -179.445312 107.484375 -177.367188 96.984375 -173.953125 C 86.492188 -170.535156 76.398438 -166.0625 66.703125 -160.53125 C 57.015625 -155.007812 48.347656 -148.863281 40.703125 -142.09375 C 33.066406 -135.320312 27.203125 -128.269531 23.109375 -120.9375 C 15.160156 -107.019531 14.351562 -93.789062 20.6875 -81.25 C 21.0625 -80.375 21.09375 -79.46875 20.78125 -78.53125 C 20.46875 -77.601562 19.875 -76.894531 19 -76.40625 C 18.132812 -76.03125 17.234375 -76 16.296875 -76.3125 C 15.367188 -76.625 14.65625 -77.210938 14.15625 -78.078125 C 6.707031 -92.984375 7.578125 -108.453125 16.765625 -124.484375 C 21.242188 -132.429688 27.488281 -140.003906 35.5 -147.203125 C 43.507812 -154.410156 52.578125 -160.898438 62.703125 -166.671875 C 72.828125 -172.453125 83.445312 -177.144531 94.5625 -180.75 C 105.6875 -184.351562 116.648438 -186.59375 127.453125 -187.46875 C 136.773438 -188.082031 144.570312 -187.488281 150.84375 -185.6875 C 157.113281 -183.882812 162.113281 -181.460938 165.84375 -178.421875 C 169.570312 -175.378906 172.367188 -172.304688 174.234375 -169.203125 C 177.960938 -163.359375 180.007812 -156.367188 180.375 -148.234375 C 180.75 -140.097656 179.566406 -131.335938 176.828125 -121.953125 C 174.097656 -112.578125 169.816406 -102.984375 163.984375 -93.171875 C 158.390625 -83.609375 151.707031 -74.632812 143.9375 -66.25 C 136.175781 -57.863281 127.890625 -50.6875 119.078125 -44.71875 C 109.628906 -38.132812 99.875 -33.164062 89.8125 -29.8125 C 96.519531 -23.476562 102.820312 -16.425781 108.71875 -8.65625 C 114.625 -0.894531 120.25 6.769531 125.59375 14.34375 C 130.5625 21.300781 135.40625 27.882812 140.125 34.09375 C 144.851562 40.3125 149.453125 45.375 153.921875 49.28125 C 158.390625 53.195312 162.738281 55.21875 166.96875 55.34375 C 172.1875 55.46875 177.523438 52.238281 182.984375 45.65625 C 183.609375 44.90625 184.382812 44.46875 185.3125 44.34375 C 186.25 44.21875 187.148438 44.46875 188.015625 45.09375 Z M 36.515625 -41 C 37.140625 -39.257812 38.878906 -37.550781 41.734375 -35.875 C 44.597656 -34.195312 48.578125 -33.046875 53.671875 -32.421875 C 54.535156 -35.773438 55.40625 -39.253906 56.28125 -42.859375 C 54.039062 -43.722656 51.832031 -44.4375 49.65625 -45 C 47.488281 -45.5625 45.472656 -45.84375 43.609375 -45.84375 C 40.992188 -45.84375 38.941406 -45.28125 37.453125 -44.15625 C 36.460938 -43.289062 36.148438 -42.238281 36.515625 -41 Z M 60.9375 -32.234375 C 65.28125 -32.234375 69.691406 -32.671875 74.171875 -33.546875 C 72.921875 -34.410156 71.675781 -35.21875 70.4375 -35.96875 C 69.320312 -36.582031 68.140625 -37.234375 66.890625 -37.921875 C 65.648438 -38.609375 64.285156 -39.320312 62.796875 -40.0625 C 62.546875 -38.695312 62.265625 -37.359375 61.953125 -36.046875 C 61.648438 -34.742188 61.3125 -33.472656 60.9375 -32.234375 Z M 60.9375 -32.234375 "/></g></g><g style="fill:#ffffff;fill-opacity:1;"><g transform="translate(69.480251, 252.926935)"><path style="stroke:none" d="M 2.21875 -5.125 L 4.625 -5.125 C 5.21875 -5.125 5.707031 -5.328125 6.09375 -5.734375 C 6.488281 -6.148438 6.6875 -6.664062 6.6875 -7.28125 C 6.6875 -7.875 6.5 -8.367188 6.125 -8.765625 C 5.75 -9.148438 5.25 -9.34375 4.625 -9.34375 L 2.21875 -9.34375 Z M 7.765625 -7.25 C 7.765625 -6.34375 7.441406 -5.585938 6.796875 -4.984375 C 6.234375 -4.453125 5.550781 -4.164062 4.75 -4.125 L 7.9375 0 L 6.5 0 L 3.46875 -4.109375 L 2.21875 -4.109375 L 2.21875 0 L 1.140625 0 L 1.140625 -10.375 L 4.46875 -10.375 C 5.394531 -10.375 6.171875 -10.082031 6.796875 -9.5 C 7.441406 -8.882812 7.765625 -8.132812 7.765625 -7.25 Z M 7.765625 -7.25 "/></g></g><g style="fill:#ffffff;fill-opacity:1;"><g transform="translate(89.487907, 252.926935)"><path style="stroke:none" d="M 2.828125 -3.8125 L 6.59375 -3.8125 L 4.71875 -8.578125 Z M 9.25 0 L 8.09375 0 L 6.984375 -2.828125 L 2.421875 -2.828125 L 1.3125 0 L 0.15625 0 L 4.71875 -11.09375 Z M 9.25 0 "/></g></g><g style="fill:#ffffff;fill-opacity:1;"><g transform="translate(110.6088, 252.926935)"><path style="stroke:none" d="M 7.921875 -2.890625 C 7.921875 -2.460938 7.820312 -2.054688 7.625 -1.671875 C 7.425781 -1.285156 7.164062 -0.972656 6.84375 -0.734375 C 6.21875 -0.242188 5.375 0 4.3125 0 L 1.140625 0 L 1.140625 -10.375 L 3.953125 -10.375 C 5.460938 -10.375 6.445312 -9.90625 6.90625 -8.96875 C 7.070312 -8.632812 7.15625 -8.289062 7.15625 -7.9375 C 7.15625 -7.59375 7.128906 -7.328125 7.078125 -7.140625 C 7.015625 -6.929688 6.929688 -6.738281 6.828125 -6.5625 C 6.597656 -6.164062 6.300781 -5.882812 5.9375 -5.71875 C 6.539062 -5.550781 7.019531 -5.226562 7.375 -4.75 C 7.738281 -4.25 7.921875 -3.628906 7.921875 -2.890625 Z M 6.078125 -7.78125 C 6.078125 -8.820312 5.367188 -9.34375 3.953125 -9.34375 L 2.21875 -9.34375 L 2.21875 -6.109375 L 4.25 -6.109375 C 4.800781 -6.109375 5.242188 -6.25 5.578125 -6.53125 C 5.910156 -6.800781 6.078125 -7.21875 6.078125 -7.78125 Z M 6.84375 -3.09375 C 6.84375 -3.394531 6.785156 -3.664062 6.671875 -3.90625 C 6.554688 -4.132812 6.40625 -4.335938 6.21875 -4.515625 C 5.8125 -4.867188 5.332031 -5.046875 4.78125 -5.046875 L 2.21875 -5.046875 L 2.21875 -1.015625 L 4.625 -1.015625 C 5.269531 -1.015625 5.800781 -1.207031 6.21875 -1.59375 C 6.632812 -1.976562 6.84375 -2.476562 6.84375 -3.09375 Z M 6.84375 -3.09375 "/></g></g><g style="fill:#ffffff;fill-opacity:1;"><g transform="translate(130.54021, 252.926935)"><path style="stroke:none" d="M 2.21875 0 L 1.140625 0 L 1.140625 -10.375 L 2.21875 -10.375 Z M 2.21875 0 "/></g></g><g style="fill:#ffffff;fill-opacity:1;"><g transform="translate(145.606923, 252.926935)"><path style="stroke:none" d="M 2.828125 -3.8125 L 6.59375 -3.8125 L 4.71875 -8.578125 Z M 9.25 0 L 8.09375 0 L 6.984375 -2.828125 L 2.421875 -2.828125 L 1.3125 0 L 0.15625 0 L 4.71875 -11.09375 Z M 9.25 0 "/></g></g><g style="fill:#ffffff;fill-opacity:1;"><g transform="translate(166.727816, 252.926935)"><path style="stroke:none" d=""/></g></g><g style="fill:#ffffff;fill-opacity:1;"><g transform="translate(182.557021, 252.926935)"><path style="stroke:none" d="M 2.21875 0 L 1.140625 0 L 1.140625 -10.375 L 2.21875 -10.375 Z M 2.21875 0 "/></g></g><g style="fill:#ffffff;fill-opacity:1;"><g transform="translate(197.623733, 252.926935)"><path style="stroke:none" d="M 4.03125 -4.890625 C 1.914062 -5.378906 0.859375 -6.285156 0.859375 -7.609375 C 0.859375 -8.585938 1.195312 -9.320312 1.875 -9.8125 C 2.550781 -10.28125 3.347656 -10.515625 4.265625 -10.515625 C 6.296875 -10.515625 7.5 -9.765625 7.875 -8.265625 L 6.703125 -8.265625 C 6.503906 -9.160156 5.691406 -9.609375 4.265625 -9.609375 C 3.273438 -9.609375 2.582031 -9.3125 2.1875 -8.71875 C 2.03125 -8.5 1.953125 -8.222656 1.953125 -7.890625 C 1.953125 -7.242188 2.296875 -6.75 2.984375 -6.40625 C 3.316406 -6.226562 4.007812 -6.003906 5.0625 -5.734375 C 6.125 -5.460938 6.890625 -5.15625 7.359375 -4.8125 C 8.023438 -4.351562 8.359375 -3.703125 8.359375 -2.859375 C 8.359375 -1.804688 7.945312 -1.007812 7.125 -0.46875 C 6.425781 -0.0195312 5.570312 0.203125 4.5625 0.203125 C 2.257812 0.203125 0.925781 -0.671875 0.5625 -2.421875 L 1.828125 -2.421875 C 2.023438 -1.328125 2.9375 -0.78125 4.5625 -0.78125 C 5.71875 -0.78125 6.523438 -1.097656 6.984375 -1.734375 C 7.171875 -1.992188 7.265625 -2.34375 7.265625 -2.78125 C 7.265625 -3.207031 7.09375 -3.554688 6.75 -3.828125 C 6.269531 -4.210938 5.363281 -4.566406 4.03125 -4.890625 Z M 4.03125 -4.890625 "/></g></g><g style="fill:#ffffff;fill-opacity:1;"><g transform="translate(218.088881, 252.926935)"><path style="stroke:none" d="M 2.21875 0 L 1.140625 0 L 1.140625 -10.375 L 2.21875 -10.375 L 2.21875 -5.703125 L 6.921875 -5.703125 L 6.921875 -10.375 L 7.984375 -10.375 L 7.984375 0 L 6.921875 0 L 6.921875 -4.640625 L 2.21875 -4.640625 Z M 2.21875 0 "/></g></g><g style="fill:#ffffff;fill-opacity:1;"><g transform="translate(238.935275, 252.926935)"><path style="stroke:none" d="M 0.3125 -9.40625 L 0.3125 -10.40625 L 6.40625 -10.40625 L 6.40625 -9.40625 L 3.890625 -9.40625 L 3.890625 -0.03125 L 2.828125 -0.03125 L 2.828125 -9.40625 Z M 0.3125 -9.40625 "/></g></g><g style="fill:#ffffff;fill-opacity:1;"><g transform="translate(257.35696, 252.926935)"><path style="stroke:none" d="M 2.21875 0 L 1.140625 0 L 1.140625 -10.375 L 2.21875 -10.375 Z M 2.21875 0 "/></g></g><g style="fill:#ffffff;fill-opacity:1;"><g transform="translate(272.423673, 252.926935)"><path style="stroke:none" d="M 2.828125 -3.8125 L 6.59375 -3.8125 L 4.71875 -8.578125 Z M 9.25 0 L 8.09375 0 L 6.984375 -2.828125 L 2.421875 -2.828125 L 1.3125 0 L 0.15625 0 L 4.71875 -11.09375 Z M 9.25 0 "/></g></g><g style="fill:#ffffff;fill-opacity:1;"><g transform="translate(293.544566, 252.926935)"><path style="stroke:none" d="M 11.34375 -5.171875 C 11.34375 -4.441406 11.207031 -3.753906 10.9375 -3.109375 C 10.644531 -2.460938 10.265625 -1.898438 9.796875 -1.421875 C 9.472656 -1.109375 9.117188 -0.835938 8.734375 -0.609375 C 9.160156 -0.703125 9.5625 -0.789062 9.9375 -0.875 L 11.5 -0.875 L 11.5 0 L 7.296875 0 C 6.878906 0.101562 6.453125 0.15625 6.015625 0.15625 C 5.273438 0.15625 4.585938 0.0078125 3.953125 -0.28125 C 3.296875 -0.550781 2.726562 -0.929688 2.25 -1.421875 C 1.769531 -1.898438 1.390625 -2.460938 1.109375 -3.109375 C 0.828125 -3.753906 0.6875 -4.441406 0.6875 -5.171875 C 0.6875 -5.898438 0.828125 -6.59375 1.109375 -7.25 C 1.390625 -7.894531 1.769531 -8.460938 2.25 -8.953125 C 2.726562 -9.429688 3.296875 -9.8125 3.953125 -10.09375 C 4.585938 -10.363281 5.273438 -10.5 6.015625 -10.5 C 6.742188 -10.5 7.429688 -10.363281 8.078125 -10.09375 C 8.734375 -9.8125 9.304688 -9.429688 9.796875 -8.953125 C 10.265625 -8.460938 10.644531 -7.894531 10.9375 -7.25 C 11.207031 -6.59375 11.34375 -5.898438 11.34375 -5.171875 Z M 10.28125 -5.171875 C 10.28125 -6.347656 9.863281 -7.351562 9.03125 -8.1875 C 8.195312 -9.019531 7.191406 -9.4375 6.015625 -9.4375 C 4.835938 -9.4375 3.832031 -9.019531 3 -8.1875 C 2.164062 -7.351562 1.75 -6.347656 1.75 -5.171875 C 1.75 -4.003906 2.164062 -3.003906 3 -2.171875 C 3.832031 -1.335938 4.835938 -0.921875 6.015625 -0.921875 C 7.191406 -0.921875 8.195312 -1.335938 9.03125 -2.171875 C 9.863281 -3.003906 10.28125 -4.003906 10.28125 -5.171875 Z M 10.28125 -5.171875 "/></g></g><g style="fill:#ffffff;fill-opacity:1;"><g transform="translate(6.615298, 249.343474)"><path style="stroke:none" d="M 6.109375 0.1875 C 5.335938 0.1875 4.660156 0.0351562 4.078125 -0.265625 C 3.492188 -0.578125 3.046875 -1.003906 2.734375 -1.546875 C 2.421875 -2.097656 2.265625 -2.722656 2.265625 -3.421875 C 2.265625 -4.109375 2.421875 -4.726562 2.734375 -5.28125 C 3.046875 -5.832031 3.492188 -6.265625 4.078125 -6.578125 C 4.660156 -6.898438 5.335938 -7.0625 6.109375 -7.0625 C 6.878906 -7.0625 7.554688 -6.90625 8.140625 -6.59375 C 8.734375 -6.28125 9.179688 -5.847656 9.484375 -5.296875 C 9.796875 -4.753906 9.953125 -4.132812 9.953125 -3.4375 C 9.953125 -2.382812 9.601562 -1.515625 8.90625 -0.828125 C 8.207031 -0.148438 7.273438 0.1875 6.109375 0.1875 Z M 6.109375 0.1875 "/></g></g><g style="fill:#ffffff;fill-opacity:1;"><g transform="translate(356.269551, 249.343474)"><path style="stroke:none" d="M 6.109375 0.1875 C 5.335938 0.1875 4.660156 0.0351562 4.078125 -0.265625 C 3.492188 -0.578125 3.046875 -1.003906 2.734375 -1.546875 C 2.421875 -2.097656 2.265625 -2.722656 2.265625 -3.421875 C 2.265625 -4.109375 2.421875 -4.726562 2.734375 -5.28125 C 3.046875 -5.832031 3.492188 -6.265625 4.078125 -6.578125 C 4.660156 -6.898438 5.335938 -7.0625 6.109375 -7.0625 C 6.878906 -7.0625 7.554688 -6.90625 8.140625 -6.59375 C 8.734375 -6.28125 9.179688 -5.847656 9.484375 -5.296875 C 9.796875 -4.753906 9.953125 -4.132812 9.953125 -3.4375 C 9.953125 -2.382812 9.601562 -1.515625 8.90625 -0.828125 C 8.207031 -0.148438 7.273438 0.1875 6.109375 0.1875 Z M 6.109375 0.1875 "/></g></g></g></svg>