<svg xmlns="http://www.w3.org/2000/svg" xmlns:xlink="http://www.w3.org/1999/xlink" width="500" zoomAndPan="magnify" viewBox="0 0 375 374.999991" height="500" preserveAspectRatio="xMidYMid meet" version="1.2"><defs><clipPath id="0f787ced4d"><path d="M 18.75 18.75 L 356.25 18.75 L 356.25 356.25 L 18.75 356.25 Z M 18.75 18.75 "/></clipPath></defs><g id="c97135b7d1"><g clip-rule="nonzero" clip-path="url(#0f787ced4d)"><path style=" stroke:none;fill-rule:nonzero;fill:#12100e;fill-opacity:1;" d="M 69.375 18.75 L 305.625 18.75 C 307.28125 18.75 308.9375 18.832031 310.585938 18.992188 C 312.238281 19.15625 313.875 19.398438 315.5 19.722656 C 317.128906 20.046875 318.734375 20.449219 320.320312 20.929688 C 321.90625 21.410156 323.464844 21.96875 325 22.605469 C 326.53125 23.238281 328.027344 23.945312 329.488281 24.726562 C 330.953125 25.507812 332.371094 26.359375 333.75 27.28125 C 335.128906 28.203125 336.460938 29.191406 337.742188 30.242188 C 339.023438 31.292969 340.25 32.40625 341.421875 33.578125 C 342.59375 34.75 343.707031 35.976562 344.757812 37.257812 C 345.808594 38.539062 346.796875 39.871094 347.71875 41.25 C 348.640625 42.628906 349.492188 44.046875 350.273438 45.511719 C 351.054688 46.972656 351.761719 48.46875 352.394531 50 C 353.03125 51.535156 353.589844 53.09375 354.070312 54.679688 C 354.550781 56.265625 354.953125 57.871094 355.277344 59.5 C 355.601562 61.125 355.84375 62.761719 356.007812 64.414062 C 356.167969 66.0625 356.25 67.71875 356.25 69.375 L 356.25 305.625 C 356.25 307.28125 356.167969 308.9375 356.007812 310.585938 C 355.84375 312.238281 355.601562 313.875 355.277344 315.5 C 354.953125 317.128906 354.550781 318.734375 354.070312 320.320312 C 353.589844 321.90625 353.03125 323.464844 352.394531 325 C 351.761719 326.53125 351.054688 328.027344 350.273438 329.488281 C 349.492188 330.953125 348.640625 332.371094 347.71875 333.75 C 346.796875 335.128906 345.808594 336.460938 344.757812 337.742188 C 343.707031 339.023438 342.59375 340.25 341.421875 341.421875 C 340.25 342.59375 339.023438 343.707031 337.742188 344.757812 C 336.460938 345.808594 335.128906 346.796875 333.75 347.71875 C 332.371094 348.640625 330.953125 349.492188 329.488281 350.273438 C 328.027344 351.054688 326.53125 351.761719 325 352.394531 C 323.464844 353.03125 321.90625 353.589844 320.320312 354.070312 C 318.734375 354.550781 317.128906 354.953125 315.5 355.277344 C 313.875 355.601562 312.238281 355.84375 310.585938 356.007812 C 308.9375 356.167969 307.28125 356.25 305.625 356.25 L 69.375 356.25 C 67.71875 356.25 66.0625 356.167969 64.414062 356.007812 C 62.761719 355.84375 61.125 355.601562 59.5 355.277344 C 57.871094 354.953125 56.265625 354.550781 54.679688 354.070312 C 53.09375 353.589844 51.535156 353.03125 50 352.394531 C 48.46875 351.761719 46.972656 351.054688 45.511719 350.273438 C 44.046875 349.492188 42.628906 348.640625 41.25 347.71875 C 39.871094 346.796875 38.539062 345.808594 37.257812 344.757812 C 35.976562 343.707031 34.75 342.59375 33.578125 341.421875 C 32.40625 340.25 31.292969 339.023438 30.242188 337.742188 C 29.191406 336.460938 28.203125 335.128906 27.28125 333.75 C 26.359375 332.371094 25.507812 330.953125 24.726562 329.488281 C 23.945312 328.027344 23.238281 326.53125 22.605469 325 C 21.96875 323.464844 21.410156 321.90625 20.929688 320.320312 C 20.449219 318.734375 20.046875 317.128906 19.722656 315.5 C 19.398438 313.875 19.15625 312.238281 18.992188 310.585938 C 18.832031 308.9375 18.75 307.28125 18.75 305.625 L 18.75 69.375 C 18.75 67.71875 18.832031 66.0625 18.992188 64.414062 C 19.15625 62.761719 19.398438 61.125 19.722656 59.5 C 20.046875 57.871094 20.449219 56.265625 20.929688 54.679688 C 21.410156 53.09375 21.96875 51.535156 22.605469 50 C 23.238281 48.46875 23.945312 46.972656 24.726562 45.511719 C 25.507812 44.046875 26.359375 42.628906 27.28125 41.25 C 28.203125 39.871094 29.191406 38.539062 30.242188 37.257812 C 31.292969 35.976562 32.40625 34.75 33.578125 33.578125 C 34.75 32.40625 35.976562 31.292969 37.257812 30.242188 C 38.539062 29.191406 39.871094 28.203125 41.25 27.28125 C 42.628906 26.359375 44.046875 25.507812 45.511719 24.726562 C 46.972656 23.945312 48.46875 23.238281 50 22.605469 C 51.535156 21.96875 53.09375 21.410156 54.679688 20.929688 C 56.265625 20.449219 57.871094 20.046875 59.5 19.722656 C 61.125 19.398438 62.761719 19.15625 64.414062 18.992188 C 66.0625 18.832031 67.71875 18.75 69.375 18.75 Z M 69.375 18.75 "/></g><path style=" stroke:none;fill-rule:nonzero;fill:#ffffff;fill-opacity:1;" d="M 101.148438 132.789062 C 101.148438 130.152344 99.828125 126.855469 97.851562 125.535156 L 77.417969 100.488281 L 77.417969 96.53125 L 142.015625 96.53125 L 191.453125 205.957031 L 235.621094 96.53125 L 296.921875 96.53125 L 296.921875 100.488281 L 279.125 117.625 C 277.808594 118.285156 277.148438 120.261719 277.148438 122.242188 L 277.148438 247.484375 C 277.148438 249.460938 277.808594 251.441406 279.125 252.757812 L 296.921875 269.238281 L 296.921875 273.191406 L 209.253906 273.191406 L 209.253906 269.238281 L 227.050781 252.097656 C 229.027344 250.121094 229.027344 249.460938 229.027344 246.824219 L 229.027344 145.972656 L 178.929688 272.535156 L 172.339844 272.535156 L 114.332031 145.972656 L 114.332031 231.003906 C 113.671875 234.300781 114.988281 238.257812 117.625 240.894531 L 140.699219 269.238281 L 140.699219 272.535156 L 74.78125 272.535156 L 74.78125 269.238281 L 97.851562 240.894531 C 100.488281 238.257812 101.804688 234.300781 101.148438 231.003906 Z M 101.148438 132.789062 "/></g></svg>